<svg fill="none" xmlns="http://www.w3.org/2000/svg" viewBox="0 0 310 310"><g clip-path="url(#clip0)"><path fill="#006858" d="M0 0h310v310H0z"/><path fill-rule="evenodd" clip-rule="evenodd" d="M172.22 162.44s12.03-19.03 42.4-15.18c30.37 3.86 41.44-5.01 41.44-5.01s-20.68 28.86-44.67 21.1c-24-7.77-39.17-.91-39.17-.91zM153.04 229.85s12.03-19.02 42.4-15.17c30.37 3.86 41.45-5.01 41.45-5.01s-20.68 28.86-44.68 21.1c-24-7.78-39.17-.92-39.17-.92zM191.72 98.68s12.03-19.02 42.39-15.17c30.37 3.86 41.45-5.01 41.45-5.01s-20.7 28.86-44.68 21.1c-24-7.77-39.16-.92-39.16-.92zM132.72 145.24s-2.2 2.07-13.34 2.07H89.2c-4.85 0-5.53 1.95-5.53 1.95.22-1.17.86-4.3 1.07-5.46 6-32.47 10.72-57.98 10.94-58.87 1.75-7.02 8-8.46 8-8.46l-28.92-.04s-5.91.1-8.01 8.56c-.6 2.44-20.95 113.56-25.3 138.35-.99 5.68-7 7.7-7 7.7h28.61s5.54-.45 7.03-7.7c2.02-9.8 5.8-31.54 10.6-57.64.66-3.91 4.7-3.52 4.7-3.52h28.82s9.51.18 13.85-4.67c4.34-4.84 4.66-12.27 4.66-12.27z" fill="#fff"/><path fill-rule="evenodd" clip-rule="evenodd" d="M139.1 149.09c-5.8 110.8-86.42 94.11-86.42 94.11l-.03.84c12.54 2.56 106.55 17.35 112.45-83.13 5.8-110.79 86.43-94.11 86.43-94.11l.03-.84C239.01 63.4 145.02 48.6 139.1 149.1z" fill="#fff"/></g><defs><clipPath id="clip0"><path fill="#fff" d="M0 0h310v310H0z"/></clipPath></defs></svg>