<svg class="hse-logo" width="68" height="70" viewBox="0 0 68 70" fill="none" xmlns="http://www.w3.org/2000/svg">
  <path fill-rule="evenodd" clip-rule="evenodd" d="M38.0954 37.0374C38.0954 37.0374 41.4213 31.8259 49.8172 32.8807C58.214 33.9365 61.2768 31.5067 61.2768 31.5067C61.2768 31.5067 55.5595 39.4129 48.9243 37.287C42.2891 35.16 38.0954 37.0374 38.0954 37.0374Z" fill="#ffffff"/>
  <path fill-rule="evenodd" clip-rule="evenodd" d="M32.7907 55.5021C32.7907 55.5021 36.1177 50.2916 44.5145 51.3453C52.9114 52.4022 55.9753 49.9724 55.9753 49.9724C55.9753 49.9724 50.2569 57.8766 43.6207 55.7507C36.9855 53.6227 32.7907 55.5021 32.7907 55.5021Z" fill="#ffffff"/>
  <path fill-rule="evenodd" clip-rule="evenodd" d="M43.4852 19.5749C43.4852 19.5749 46.8112 14.3644 55.207 15.4202C63.6028 16.476 66.6667 14.0462 66.6667 14.0462C66.6667 14.0462 60.9463 21.9504 54.3131 19.8245C47.679 17.6975 43.4852 19.5749 43.4852 19.5749Z" fill="#ffffff"/>
  <path fill-rule="evenodd" clip-rule="evenodd" d="M27.1716 32.3255C27.1716 32.3255 26.5638 32.8933 23.4843 32.8933H15.1386C13.7999 32.8933 13.6109 33.4284 13.6109 33.4284C13.6704 33.1061 13.8479 32.2508 13.9064 31.9327C15.5647 23.0392 16.87 16.0537 16.9306 15.8092C17.4161 13.8858 19.1423 13.4909 19.1423 13.4909L11.1475 13.4807C11.1475 13.4807 9.51319 13.5103 8.93154 15.8245C8.7655 16.4926 3.13904 46.9288 1.93919 53.7178C1.66455 55.2729 0 55.8274 0 55.8274H7.91339C7.91339 55.8274 9.44322 55.7026 9.85571 53.7178C10.4154 51.0323 11.4607 45.0791 12.788 37.9299C12.9697 36.8587 14.085 36.9651 14.085 36.9651H22.0547C22.0547 36.9651 24.6852 37.0163 25.884 35.6873C27.0839 34.3625 27.1716 32.3255 27.1716 32.3255Z" fill="#ffffff"/>
  <path fill-rule="evenodd" clip-rule="evenodd" d="M28.9385 33.3814C27.3345 63.7266 5.04276 59.1576 5.04276 59.1576C5.04276 59.1576 5.03441 59.355 5.03337 59.3857C8.50239 60.0886 34.494 64.1389 36.1261 36.6194C37.7312 6.27531 60.024 10.8423 60.024 10.8423C60.024 10.8423 60.0313 10.6438 60.0334 10.6141C56.5623 9.91231 30.5728 5.85892 28.9385 33.3814Z" fill="#ffffff"/>
</svg>
