<svg fill="none" xmlns="http://www.w3.org/2000/svg" viewBox="0 0 40 30"><path fill-rule="evenodd" clip-rule="evenodd" d="M0 30h40V0H0v30z" fill="#fff"/><path fill-rule="evenodd" clip-rule="evenodd" d="M22.86 16.22s2-3.12 7.03-2.5c5.04.64 6.88-.82 6.88-.82s-3.43 4.75-7.42 3.47c-3.98-1.27-6.5-.15-6.5-.15zM19.67 27.3s2-3.13 7.04-2.5c5.04.64 6.88-.82 6.88-.82s-3.44 4.75-7.42 3.47c-3.98-1.28-6.5-.15-6.5-.15zM26.1 5.74s1.99-3.12 7.02-2.49c5.04.64 6.88-.82 6.88-.82s-3.43 4.74-7.41 3.46c-3.98-1.27-6.5-.15-6.5-.15z" fill="#71A59C"/><path fill-rule="evenodd" clip-rule="evenodd" d="M16.3 13.4s-.36.34-2.2.34H9.07c-.8 0-.91.32-.91.32l.17-.9c1-5.34 1.78-9.53 1.82-9.67.29-1.16 1.33-1.4 1.33-1.4h-4.8s-.98.02-1.33 1.4c-.1.4-3.48 18.67-4.2 22.74C1 27.16 0 27.5 0 27.5h4.75s.92-.08 1.16-1.27c.34-1.61.97-5.18 1.76-9.47.11-.64.78-.58.78-.58h4.78s1.58.03 2.3-.77c.72-.8.77-2.01.77-2.01z" fill="#006858"/><path fill-rule="evenodd" clip-rule="evenodd" d="M17.36 14.03C16.4 32.23 3.03 29.49 3.03 29.49l-.01.14c2.08.42 17.68 2.85 18.66-13.66C22.64-2.23 36 .51 36 .51l.01-.14c-2.08-.42-17.68-2.85-18.66 13.66z" fill="#B30838"/></svg>